HIERARCHY
ROOT Hips
{
  OFFSET 12.5924 87.7646 8.5502
  CHANNELS 6 Xposition Yposition Zposition Zrotation Xrotation Yrotation
  JOINT RightUpLeg
  {
    OFFSET -9.27424 -1.51647 -0.00177081
    CHANNELS 3 Zrotation Xrotation Yrotation
    JOINT RightLeg
    {
      OFFSET -0.0218595 -41.9179 0.0996455
      CHANNELS 3 Zrotation Xrotation Yrotation
      JOINT RightFoot
      {
        OFFSET -0.864559 -41.9626 -0.357059
        CHANNELS 3 Zrotation Xrotation Yrotation
        End Site
        {
          OFFSET 0 -7.69 17.5
        }
      }
    }
  }
  JOINT LeftUpLeg
  {
    OFFSET 9.25718 -1.5867 0.052377
    CHANNELS 3 Zrotation Xrotation Yrotation
    JOINT LeftLeg
    {
      OFFSET 0.0916619 -41.8676 0.000817906
      CHANNELS 3 Zrotation Xrotation Yrotation
      JOINT LeftFoot
      {
        OFFSET -0.467602 -41.8546 0.208385
        CHANNELS 3 Zrotation Xrotation Yrotation
        End Site
        {
          OFFSET 0 -7.69 17.5
        }
      }
    }
  }
  JOINT Spine
  {
    OFFSET 0.0181296 14.2981 0.0454815
    CHANNELS 3 Zrotation Xrotation Yrotation
    JOINT Spine1
    {
      OFFSET 0.0179205 9.71532 0.0144816
      CHANNELS 3 Zrotation Xrotation Yrotation
      JOINT Spine2
      {
        OFFSET 0.0460832 10.1118 -0.00781291
        CHANNELS 3 Zrotation Xrotation Yrotation
        JOINT Spine3
        {
          OFFSET 0.0326005 9.72657 -0.000132442
          CHANNELS 3 Zrotation Xrotation Yrotation
          JOINT Neck
          {
            OFFSET -0.0594321 10.3688 0.0892585
            CHANNELS 3 Zrotation Xrotation Yrotation
            JOINT Head
            {
              OFFSET -0.027184 9.52116 0.11923
              CHANNELS 3 Zrotation Xrotation Yrotation
              End Site
              {
                OFFSET 0 15.95 0
              }
            }
          }
          JOINT RightShoulder
          {
            OFFSET -3.18249 6.94712 0.0315742
            CHANNELS 3 Zrotation Xrotation Yrotation
            JOINT RightArm
            {
              OFFSET -12.6859 -0.0281953 -0.0223312
              CHANNELS 3 Zrotation Xrotation Yrotation
              JOINT RightForeArm
              {
                OFFSET -26.4349 -0.138904 0.103809
                CHANNELS 3 Zrotation Xrotation Yrotation
                JOINT RightHand
                {
                  OFFSET -26.0404 -0.036643 0.02476
                  CHANNELS 3 Zrotation Xrotation Yrotation
                  JOINT RightHandThumb1
                  {
                    OFFSET -2.48905 0.190105 3.12053
                    CHANNELS 3 Zrotation Xrotation Yrotation
                    JOINT RightHandThumb2
                    {
                      OFFSET -3.68274 0 0
                      CHANNELS 3 Zrotation Xrotation Yrotation
                      JOINT RightHandThumb3
                      {
                        OFFSET -2.55832 0 0
                        CHANNELS 3 Zrotation Xrotation Yrotation
                        End Site
                        {
                          OFFSET -2.194 0 0
                        }
                      }
                    }
                  }
                  JOINT RightInHandIndex
                  {
                    OFFSET -3.22368 0.508421 1.97842
                    CHANNELS 3 Zrotation Xrotation Yrotation
                    JOINT RightHandIndex1
                    {
                      OFFSET -5.21684 -0.091368 0.999158
                      CHANNELS 3 Zrotation Xrotation Yrotation
                      JOINT RightHandIndex2
                      {
                        OFFSET -3.61937 0 0
                        CHANNELS 3 Zrotation Xrotation Yrotation
                        JOINT RightHandIndex3
                        {
                          OFFSET -2.0521 0 0
                          CHANNELS 3 Zrotation Xrotation Yrotation
                          End Site
                          {
                            OFFSET -1.805 0 0
                          }
                        }
                      }
                    }
                  }
                  JOINT RightInHandMiddle
                  {
                    OFFSET -3.38211 0.517263 0.756737
                    CHANNELS 3 Zrotation Xrotation Yrotation
                    JOINT RightHandMiddle1
                    {
                      OFFSET -5.17411 -0.084 0.313895
                      CHANNELS 3 Zrotation Xrotation Yrotation
                      JOINT RightHandMiddle2
                      {
                        OFFSET -3.94947 0 0
                        CHANNELS 3 Zrotation Xrotation Yrotation
                        JOINT RightHandMiddle3
                        {
                          OFFSET -2.47579 0 0
                          CHANNELS 3 Zrotation Xrotation Yrotation
                          End Site
                          {
                            OFFSET -1.975 0 0
                          }
                        }
                      }
                    }
                  }
                  JOINT RightInHandRing
                  {
                    OFFSET -3.36516 0.537895 -0.128947
                    CHANNELS 3 Zrotation Xrotation Yrotation
                    JOINT RightHandRing1
                    {
                      OFFSET -4.63474 -0.022105 -0.478947
                      CHANNELS 3 Zrotation Xrotation Yrotation
                      JOINT RightHandRing2
                      {
                        OFFSET -3.44238 0 0
                        CHANNELS 3 Zrotation Xrotation Yrotation
                        JOINT RightHandRing3
                        {
                          OFFSET -2.3881 0 0
                          CHANNELS 3 Zrotation Xrotation Yrotation
                          End Site
                          {
                            OFFSET -1.857 0 0
                          }
                        }
                      }
                    }
                  }
                  JOINT RightInHandPinky
                  {
                    OFFSET -3.16105 0.469368 -1.20179
                    CHANNELS 3 Zrotation Xrotation Yrotation
                    JOINT RightHandPinky1
                    {
                      OFFSET -4.14105 -0.022105 -1.09053
                      CHANNELS 3 Zrotation Xrotation Yrotation
                      JOINT RightHandPinky2
                      {
                        OFFSET -2.75653 0 0
                        CHANNELS 3 Zrotation Xrotation Yrotation
                        JOINT RightHandPinky3
                        {
                          OFFSET -1.74189 0 0
                          CHANNELS 3 Zrotation Xrotation Yrotation
                          End Site
                          {
                            OFFSET -1.645 0 0
                          }
                        }
                      }
                    }
                  }
                }
              }
            }
          }
          JOINT LeftShoulder
          {
            OFFSET 3.21289 6.91298 -0.0113859
            CHANNELS 3 Zrotation Xrotation Yrotation
            JOINT LeftArm
            {
              OFFSET 12.7691 -0.0256594 -0.0399854
              CHANNELS 3 Zrotation Xrotation Yrotation
              JOINT LeftForeArm
              {
                OFFSET 26.4177 -0.0137926 -0.00219879
                CHANNELS 3 Zrotation Xrotation Yrotation
                JOINT LeftHand
                {
                  OFFSET 26.0013 -0.0633708 -0.0119906
                  CHANNELS 3 Zrotation Xrotation Yrotation
                  JOINT LeftHandThumb1
                  {
                    OFFSET 2.48905 0.190105 3.12053
                    CHANNELS 3 Zrotation Xrotation Yrotation
                    JOINT LeftHandThumb2
                    {
                      OFFSET 3.68274 0 0
                      CHANNELS 3 Zrotation Xrotation Yrotation
                      JOINT LeftHandThumb3
                      {
                        OFFSET 2.55832 0 0
                        CHANNELS 3 Zrotation Xrotation Yrotation
                        End Site
                        {
                          OFFSET 2.194 0 0
                        }
                      }
                    }
                  }
                  JOINT LeftInHandIndex
                  {
                    OFFSET 3.22368 0.508421 1.97842
                    CHANNELS 3 Zrotation Xrotation Yrotation
                    JOINT LeftHandIndex1
                    {
                      OFFSET 5.21684 -0.091368 0.999158
                      CHANNELS 3 Zrotation Xrotation Yrotation
                      JOINT LeftHandIndex2
                      {
                        OFFSET 3.61937 0 0
                        CHANNELS 3 Zrotation Xrotation Yrotation
                        JOINT LeftHandIndex3
                        {
                          OFFSET 2.0521 0 0
                          CHANNELS 3 Zrotation Xrotation Yrotation
                          End Site
                          {
                            OFFSET 1.805 0 0
                          }
                        }
                      }
                    }
                  }
                  JOINT LeftInHandMiddle
                  {
                    OFFSET 3.38211 0.517263 0.756737
                    CHANNELS 3 Zrotation Xrotation Yrotation
                    JOINT LeftHandMiddle1
                    {
                      OFFSET 5.17411 -0.084 0.313895
                      CHANNELS 3 Zrotation Xrotation Yrotation
                      JOINT LeftHandMiddle2
                      {
                        OFFSET 3.94947 0 0
                        CHANNELS 3 Zrotation Xrotation Yrotation
                        JOINT LeftHandMiddle3
                        {
                          OFFSET 2.47579 0 0
                          CHANNELS 3 Zrotation Xrotation Yrotation
                          End Site
                          {
                            OFFSET 1.975 0 0
                          }
                        }
                      }
                    }
                  }
                  JOINT LeftInHandRing
                  {
                    OFFSET 3.36516 0.537895 -0.128947
                    CHANNELS 3 Zrotation Xrotation Yrotation
                    JOINT LeftHandRing1
                    {
                      OFFSET 4.63474 -0.022105 -0.478947
                      CHANNELS 3 Zrotation Xrotation Yrotation
                      JOINT LeftHandRing2
                      {
                        OFFSET 3.44238 0 0
                        CHANNELS 3 Zrotation Xrotation Yrotation
                        JOINT LeftHandRing3
                        {
                          OFFSET 2.3881 0 0
                          CHANNELS 3 Zrotation Xrotation Yrotation
                          End Site
                          {
                            OFFSET 1.857 0 0
                          }
                        }
                      }
                    }
                  }
                  JOINT LeftInHandPinky
                  {
                    OFFSET 3.16105 0.469368 -1.20179
                    CHANNELS 3 Zrotation Xrotation Yrotation
                    JOINT LeftHandPinky1
                    {
                      OFFSET 4.14105 -0.022105 -1.09053
                      CHANNELS 3 Zrotation Xrotation Yrotation
                      JOINT LeftHandPinky2
                      {
                        OFFSET 2.75653 0 0
                        CHANNELS 3 Zrotation Xrotation Yrotation
                        JOINT LeftHandPinky3
                        {
                          OFFSET 1.74189 0 0
                          CHANNELS 3 Zrotation Xrotation Yrotation
                          End Site
                          {
                            OFFSET 1.645 0 0
                          }
                        }
                      }
                    }
                  }
                }
              }
            }
          }
        }
      }
    }
  }
}
MOTION
Frames: 3
Frame Time: 0.00833333
3.000046458008785635e+02 4.086960282188803299e-03 -2.031473684079569686e-02 -8.638520069165767090e-02 -8.419490706000525362e-03 -2.295652386161792236e-01 1.653168187924294874e-01 1.495783631041661677e-01 3.893090501620812272e-01 -1.199849659478162689e-01 3.403706138067099513e-02 2.918534223185819121e-01 1.167230427641869905e-01 -1.501262231431125388e-02 -3.205467988779620581e-01 6.763832784908541118e-02 1.648773519387134734e-01 1.190760289075594169e-01 -1.803646675602417759e-01 -8.238755747299321419e-02 1.664495927660335495e-01 9.691398198563816457e-02 5.874983328185877374e-02 2.564661030646094367e-02 -4.785205066400192303e-02 -1.031410925974072246e-01 -5.793988392302096280e-01 -1.293031495127073757e-02 -4.691575082506703465e-02 -1.632047874072008742e-01 -1.917318214391768028e-02 -5.213785983182749745e-02 -2.131011763448013574e-01 -3.276580763340221185e-03 -8.984830564160247238e-03 3.185448888629251185e-02 -1.983266471071620796e-01 -2.230776240973509628e-01 1.809380911528166713e+00 7.137240777098041722e-02 4.976423004410698847e-01 -5.808861435987132671e-01 -2.200961375474383697e-01 2.890460420632712246e-01 1.049352782984419807e+00 -3.162739221482049889e-02 2.445535795860621364e-01 1.678812978440601955e-01 1.536746065733683719e-01 1.275538279727498892e-01 9.603319517883592837e-01 -4.006857719638034498e-01 7.338876289665238230e-03 1.282950373797651922e-01 0.000000000000000000e+00 0.000000000000000000e+00 0.000000000000000000e+00 5.658131452433172867e-16 1.085404376261298112e-15 0.000000000000000000e+00 9.833865796450404153e-15 1.044714361766577688e-14 0.000000000000000000e+00 -8.346145051945207189e-16 4.837154474311644218e-16 2.479685479938406030e-15 0.000000000000000000e+00 0.000000000000000000e+00 0.000000000000000000e+00 0.000000000000000000e+00 -1.379499143100494124e-15 9.181916981020464616e-15 0.000000000000000000e+00 8.694180259390846691e-16 -8.591703444096605693e-15 -8.346145051945207189e-16 4.837154474311644218e-16 2.479685479938406030e-15 0.000000000000000000e+00 -1.462534284413360768e-15 5.221291655973361059e-15 0.000000000000000000e+00 3.826667207908249350e-15 2.600267357509793738e-15 0.000000000000000000e+00 3.035505931456524217e-15 1.278032743299676545e-14 -8.346145051945207189e-16 4.837154474311644218e-16 2.479685479938406030e-15 0.000000000000000000e+00 0.000000000000000000e+00 0.000000000000000000e+00 0.000000000000000000e+00 -1.560246016699002064e-15 -3.597897727325096486e-15 0.000000000000000000e+00 2.715231474543817394e-15 -5.020248206441815873e-15 -8.346145051945207189e-16 4.837154474311644218e-16 2.479685479938406030e-15 0.000000000000000000e+00 0.000000000000000000e+00 0.000000000000000000e+00 0.000000000000000000e+00 -5.577622346694270164e-15 -1.670545635900328229e-15 0.000000000000000000e+00 -3.435796847314578553e-16 -1.197144537134114888e-14 1.516395135515148651e-01 2.662680822851655749e-01 1.117483452268415167e+00 -1.915868865573125746e+00 1.322013301720224909e+00 2.053533916443683882e+00 3.753130553464545938e-01 8.326906091074512406e-02 1.144718270602504834e-01 -1.612996271345842114e+00 4.540080016133364871e-01 -3.292883457344536691e+00 0.000000000000000000e+00 0.000000000000000000e+00 0.000000000000000000e+00 1.878397485921813129e-15 -4.482881676514992063e-15 0.000000000000000000e+00 5.665586559133992892e-15 -6.617985351500816679e-15 0.000000000000000000e+00 -7.291900115085084171e-15 1.118057430450615234e-15 -1.897318926371870953e-15 0.000000000000000000e+00 0.000000000000000000e+00 0.000000000000000000e+00 0.000000000000000000e+00 -6.820593981617406183e-15 -2.109047409062794489e-15 0.000000000000000000e+00 1.017786751416825377e-14 -4.183489707117046013e-15 -7.291900115085084171e-15 1.118057430450615234e-15 -1.897318926371870953e-15 0.000000000000000000e+00 2.183379174114549528e-15 -7.563243150392595201e-15 0.000000000000000000e+00 4.343038937879559101e-15 -2.934936352338725066e-15 0.000000000000000000e+00 -8.708569541678434212e-16 -8.637718386992835961e-15 -7.291900115085084171e-15 1.118057430450615234e-15 -1.897318926371870953e-15 0.000000000000000000e+00 0.000000000000000000e+00 0.000000000000000000e+00 0.000000000000000000e+00 2.875839750816332051e-15 -1.416623491254300253e-14 0.000000000000000000e+00 -1.173258920850405915e-15 -1.109482755000990505e-14 -7.291900115085084171e-15 1.118057430450615234e-15 -1.897318926371870953e-15 0.000000000000000000e+00 0.000000000000000000e+00 0.000000000000000000e+00 0.000000000000000000e+00 5.281499945415644838e-15 -7.790593284183455250e-15 0.000000000000000000e+00 1.897716538629068444e-15 -9.221485710163147349e-15
3.000231473151349633e+02 3.007521557235284695e-04 -4.180359266515031036e-02 -1.032012509973467551e-01 1.802847355697616630e-02 -2.347045888708269856e-01 1.409221570370393084e-01 1.614888733723471026e-01 3.964467836056595473e-01 -1.321975391282040613e-01 6.027776528611993034e-02 3.521173466481737901e-01 1.560147712712657564e-01 -2.502341898759630201e-02 -3.938852205381629945e-01 3.138056696549790942e-02 1.724919821430574429e-01 1.121347332365669053e-01 -1.311591300006660077e-01 -5.273788903627960045e-02 1.132285825738791885e-01 8.773411629608064699e-02 3.942387747608266241e-02 2.907923766824921721e-02 -8.718577399649160564e-02 -7.461152067312908087e-02 -6.246631114475751367e-01 -2.436344867273552289e-02 -4.799371474513146330e-02 -1.779214073823249809e-01 -3.752209455141818778e-02 -5.206214687617902875e-02 -2.335597624974467823e-01 -9.695964605147574904e-04 -8.817744262802374236e-03 3.402619588494061598e-02 -1.927499453148689146e-01 -2.274608432361725774e-01 1.919884532191991733e+00 1.188680416148362173e-01 5.158444317297629089e-01 -6.051100305697837412e-01 -2.621544952520566407e-01 3.211502680219985861e-01 9.836837243860859781e-01 -1.330821454078990662e+00 -6.329490113132417717e-01 -3.044025637595962896e-01 1.016487431604266245e+00 6.065326452236413646e-01 -3.135618778752218005e-02 -4.012057510985083120e-01 1.242429270211256459e-01 3.866767616205222247e-01 0.000000000000000000e+00 0.000000000000000000e+00 0.000000000000000000e+00 1.348114940741974787e-15 1.942108352257474396e-15 0.000000000000000000e+00 1.134203925250272368e-14 1.319992175515318003e-14 0.000000000000000000e+00 -6.329070817847926673e-16 9.223853667596917398e-17 4.145317696426268897e-15 0.000000000000000000e+00 0.000000000000000000e+00 0.000000000000000000e+00 0.000000000000000000e+00 2.144563603327982072e-16 1.120662518992330745e-14 0.000000000000000000e+00 -2.882988811095201185e-16 -8.605495123190081714e-15 -6.329070817847926673e-16 9.223853667596917398e-17 4.145317696426268897e-15 0.000000000000000000e+00 1.235818030606007870e-15 3.336397614848884597e-15 0.000000000000000000e+00 5.426355560802616366e-15 6.763246106694553995e-15 0.000000000000000000e+00 5.742317258053339279e-15 1.182257912647123256e-14 -6.329070817847926673e-16 9.223853667596917398e-17 4.145317696426268897e-15 0.000000000000000000e+00 0.000000000000000000e+00 0.000000000000000000e+00 0.000000000000000000e+00 1.360751107019499174e-15 -2.346047927807402438e-15 0.000000000000000000e+00 5.587480601535908748e-15 -5.380969077014067321e-15 -6.329070817847926673e-16 9.223853667596917398e-17 4.145317696426268897e-15 0.000000000000000000e+00 0.000000000000000000e+00 0.000000000000000000e+00 0.000000000000000000e+00 -3.770166678505623802e-15 -4.031036048299240781e-16 0.000000000000000000e+00 3.897745591908323837e-15 -1.160390355187525966e-14 2.453100139572132743e-01 3.344751061398835712e-01 1.187641421084161708e+00 -2.890382970008016361e+00 1.752201898393584756e+00 3.244019448187763555e+00 3.598099339422875520e-01 4.571801536726539661e-01 -3.242094567295484842e-01 -1.790099273628608545e+00 6.764967740816049124e-01 -4.399961033340173522e+00 0.000000000000000000e+00 0.000000000000000000e+00 0.000000000000000000e+00 1.885583545124462842e-15 -5.117947681061572380e-15 0.000000000000000000e+00 6.064097254127211957e-15 -5.861521651823480714e-15 0.000000000000000000e+00 -1.013383202331235246e-14 -1.134857972090854910e-16 -1.841514333977114661e-15 0.000000000000000000e+00 0.000000000000000000e+00 0.000000000000000000e+00 0.000000000000000000e+00 -9.114466691171318597e-15 -2.031230708839477480e-15 0.000000000000000000e+00 1.374985703223465075e-14 -1.440736123558598802e-15 -1.013383202331235246e-14 -1.134857972090854910e-16 -1.841514333977114661e-15 0.000000000000000000e+00 4.078127717721605900e-15 -8.074743527468075286e-15 0.000000000000000000e+00 3.157642039959010588e-15 -3.875597181894390911e-15 0.000000000000000000e+00 -2.240813359283988039e-15 -7.380754415020428214e-15 -1.013383202331235246e-14 -1.134857972090854910e-16 -1.841514333977114661e-15 0.000000000000000000e+00 0.000000000000000000e+00 0.000000000000000000e+00 0.000000000000000000e+00 7.878556204248739229e-16 -1.421154194462828502e-14 0.000000000000000000e+00 -8.498516920173261717e-16 -9.230299720061657541e-15 -1.013383202331235246e-14 -1.134857972090854910e-16 -1.841514333977114661e-15 0.000000000000000000e+00 0.000000000000000000e+00 0.000000000000000000e+00 0.000000000000000000e+00 7.581597694097034700e-15 -8.655369911177791503e-15 0.000000000000000000e+00 1.612723205864013631e-15 -7.543930890000150805e-15
3.000424256534701044e+02 -4.050148981761609451e-03 -6.213259607074878010e-02 -9.151521559298697595e-02 3.762791271674150589e-02 -2.032148136887978462e-01 1.163142687492321886e-01 1.410564149271632817e-01 3.659801542384706896e-01 -1.301909204525313057e-01 8.380859533501389125e-02 3.760657145194251094e-01 1.823078392313456364e-01 -3.612599448839352162e-02 -4.284966674525440555e-01 9.448112183788978657e-03 1.486067659390215845e-01 1.048401213976768026e-01 -6.248216384107044968e-02 -1.726740654352006132e-02 4.521197288673445280e-02 6.799445194375682011e-02 1.776210099353031299e-02 2.363377425917126406e-02 -1.158900543927080390e-01 -5.125069859048310417e-02 -6.463805612038636683e-01 -3.270854047931266717e-02 -4.814572923241467600e-02 -1.849301514431779536e-01 -5.109427030296730121e-02 -5.092519803539057033e-02 -2.444533422546533441e-01 2.079210286611360252e-03 -8.306995660567698808e-03 3.486976079552545765e-02 -1.747287049749470245e-01 -2.154652429570584615e-01 1.904393271694814427e+00 1.694728759751491509e-01 4.925053881138430900e-01 -5.761403081309964813e-01 -2.910236646750810618e-01 3.393254468831461979e-01 8.653959898680756435e-01 -2.788223418764634864e+00 -1.637162400166971565e+00 -8.683340505452528113e-01 2.078493979945337244e+00 1.043359885868089032e+00 -1.372273902979982863e+00 -2.556390073130394569e-01 2.375205992750051565e-01 6.685447581786153615e-01 0.000000000000000000e+00 0.000000000000000000e+00 0.000000000000000000e+00 1.603425472365799112e-15 2.980490828959071500e-15 0.000000000000000000e+00 1.053495966010368509e-14 1.432826814702313708e-14 0.000000000000000000e+00 -2.159219283888222423e-16 -6.467379804778772954e-17 5.295317302871508049e-15 0.000000000000000000e+00 0.000000000000000000e+00 0.000000000000000000e+00 0.000000000000000000e+00 1.571967995036400555e-15 1.152157940133324185e-14 0.000000000000000000e+00 -1.677855727597129084e-15 -6.618744154460038896e-15 -2.159219283888222423e-16 -6.467379804778772954e-17 5.295317302871508049e-15 0.000000000000000000e+00 4.386020277722840361e-15 5.995191568579976625e-16 0.000000000000000000e+00 6.417798579073558338e-15 1.096920662407718541e-14 0.000000000000000000e+00 7.854307310539844452e-15 8.148991468387595568e-15 -2.159219283888222423e-16 -6.467379804778772954e-17 5.295317302871508049e-15 0.000000000000000000e+00 0.000000000000000000e+00 0.000000000000000000e+00 0.000000000000000000e+00 4.831947306851442786e-15 3.376102026628214731e-16 0.000000000000000000e+00 7.669701856356240857e-15 -5.187897290868317584e-15 -2.159219283888222423e-16 -6.467379804778772954e-17 5.295317302871508049e-15 0.000000000000000000e+00 0.000000000000000000e+00 0.000000000000000000e+00 0.000000000000000000e+00 -9.173065841249177157e-16 1.424018743252099439e-15 0.000000000000000000e+00 7.847370519603194542e-15 -9.287316293619487389e-15 3.301257021955956716e-01 4.132920613656391740e-01 1.200936036694166376e+00 -3.741954041643883233e+00 2.091594275093129784e+00 4.323332918736546127e+00 3.224425149308532412e-01 8.159986605467366427e-01 -8.080656349317023590e-01 -1.832052835622634879e+00 8.422401075511443125e-01 -5.190055782238056636e+00 0.000000000000000000e+00 0.000000000000000000e+00 0.000000000000000000e+00 1.268749174469838838e-15 -4.896796792782282436e-15 0.000000000000000000e+00 5.932638772340711552e-15 -4.555905632275751997e-15 0.000000000000000000e+00 -1.161502848032828841e-14 -1.662891104593255909e-15 -1.934059169158202452e-15 0.000000000000000000e+00 0.000000000000000000e+00 0.000000000000000000e+00 0.000000000000000000e+00 -9.661638152540898972e-15 -1.842529538226404489e-15 0.000000000000000000e+00 1.536694990671820312e-14 1.818702788971499363e-15 -1.161502848032828841e-14 -1.662891104593255909e-15 -1.934059169158202452e-15 0.000000000000000000e+00 5.253183558690853032e-15 -7.108748444416484004e-15 0.000000000000000000e+00 1.986117353078806672e-15 -4.263154512369033547e-15 0.000000000000000000e+00 -3.697995513104510578e-15 -5.126266603835157922e-15 -1.161502848032828841e-14 -1.662891104593255909e-15 -1.934059169158202452e-15 0.000000000000000000e+00 0.000000000000000000e+00 0.000000000000000000e+00 0.000000000000000000e+00 -1.950665617010292311e-15 -1.180337365054638802e-14 0.000000000000000000e+00 -5.981672275606506057e-16 -5.712194961388279359e-15 -1.161502848032828841e-14 -1.662891104593255909e-15 -1.934059169158202452e-15 0.000000000000000000e+00 0.000000000000000000e+00 0.000000000000000000e+00 0.000000000000000000e+00 8.819104006646206116e-15 -8.207824657491076083e-15 0.000000000000000000e+00 8.610171636006394965e-16 -4.010460453208243668e-15
